HIERARCHY
ROOT Hips
{
  OFFSET 0 89.5177 0.535
  CHANNELS 6 Xposition Yposition Zposition Zrotation Xrotation Yrotation
  JOINT Spine
  {
    OFFSET 12.0259 -0.162855 1.69034e-005
    CHANNELS 3 Zrotation Xrotation Yrotation
    JOINT Spine1
    {
      OFFSET 15.3169 -0.0121922 0
      CHANNELS 3 Zrotation Xrotation Yrotation
      JOINT Spine2
      {
        OFFSET 15.3176 -0.0121908 0
        CHANNELS 3 Zrotation Xrotation Yrotation
        JOINT Neck
        {
          OFFSET 19.9142 1.56338 0
          CHANNELS 3 Zrotation Xrotation Yrotation
          JOINT Head
          {
            OFFSET 6.92651 0 0
            CHANNELS 3 Zrotation Xrotation Yrotation
            End Site
            {
              OFFSET 20.7666 0 0
            }
          }
          JOINT LeftShoulder
          {
            OFFSET -6.20654 0.708824 7.28219
            CHANNELS 3 Zrotation Xrotation Yrotation
            JOINT LeftArm
            {
              OFFSET 14.108 0 -1.52588e-005
              CHANNELS 3 Zrotation Xrotation Yrotation
              JOINT LeftForeArm
              {
                OFFSET 28.5802 0 0
                CHANNELS 3 Zrotation Xrotation Yrotation
                JOINT LeftHand
                {
                  OFFSET 27.092 0 0
                  CHANNELS 3 Zrotation Xrotation Yrotation
                  End Site
                  {
                    OFFSET 9.55928 -0.186424 0.145352
                  }
                }
              }
            }
          }
          JOINT RightShoulder
          {
            OFFSET -6.20654 0.708866 -7.28218
            CHANNELS 3 Zrotation Xrotation Yrotation
            JOINT RightArm
            {
              OFFSET 14.108 0 1.52588e-005
              CHANNELS 3 Zrotation Xrotation Yrotation
              JOINT RightForeArm
              {
                OFFSET 28.5802 0 0
                CHANNELS 3 Zrotation Xrotation Yrotation
                JOINT RightHand
                {
                  OFFSET 27.092 0 0
                  CHANNELS 3 Zrotation Xrotation Yrotation
                  End Site
                  {
                    OFFSET 9.55929 -0.186417 -0.145354
                  }
                }
              }
            }
          }
        }
      }
    }
  }
  JOINT LeftUpLeg
  {
    OFFSET 0.005 -0.535 8.837
    CHANNELS 3 Zrotation Xrotation Yrotation
    JOINT LeftLeg
    {
      OFFSET 39.9035 0 0
      CHANNELS 3 Zrotation Xrotation Yrotation
      JOINT LeftFoot
      {
        OFFSET 39.6689 0 0
        CHANNELS 3 Zrotation Xrotation Yrotation
        JOINT LeftToe
        {
          OFFSET 10.1624 13.6296 0
          CHANNELS 3 Zrotation Xrotation Yrotation
          End Site
          {
            OFFSET 8.38147 0 0
          }
        }
      }
    }
  }
  JOINT RightUpLeg
  {
    OFFSET 0.005 -0.535 -8.837
    CHANNELS 3 Zrotation Xrotation Yrotation
    JOINT RightLeg
    {
      OFFSET 39.9035 0 0
      CHANNELS 3 Zrotation Xrotation Yrotation
      JOINT RightFoot
      {
        OFFSET 39.6689 0 0
        CHANNELS 3 Zrotation Xrotation Yrotation
        JOINT RightToe
        {
          OFFSET 10.1624 13.6296 0
          CHANNELS 3 Zrotation Xrotation Yrotation
          End Site
          {
            OFFSET 8.38147 0 0
          }
        }
      }
    }
  }
}
MOTION
Frames:	7
Frame Time:	0.0333333
476.153 88.1885 -32.8984 -121.981 -71.8207 150.13 -0.427487 4.88499 -1.19929 -0.755996 9.77823 -2.37469 -0.755995 9.77823 -2.3747 -8.30828e-012 -9.0191e-006 -5.27751e-005 10.8218 61.1814 -20.3105 -177.662 -5.79667 -67.9896 43.0064 -31.3912 56.9804 -1.08953e-005 -6.36111e-015 1.59028e-015 -156.995 -1.07475 165.067 -179.47 1.82205 73.7924 -8.98932 -0.0790563 -69.5491 -29.1229 3.18055e-015 7.95139e-016 -39.418 43.0356 34.4804 -31.6273 14.4615 171.228 -26.8953 -1.59028e-015 -6.95746e-016 7.48289 2.67413 -5.17636 90 -8.4732e-015 -6.36111e-015 -6.81968 -18.5117 -177.558 -34.9046 -3.18056e-015 6.36111e-015 24.2629 -3.1548 6.30511 90 1.19271e-015 3.18055e-015 
478.665 87.2008 -36.4013 -123.577 -74.7536 148.547 -0.456948 4.71526 -1.22416 -0.816504 9.43959 -2.42262 -0.816503 9.43959 -2.42263 -8.30748e-012 -9.0191e-006 -5.27751e-005 12.4678 60.9885 -20.7412 -177.615 -6.06248 -68.4789 43.1592 -29.9931 53.7362 -1.09232e-005 0 -3.18055e-015 -154.969 0.339554 166.982 -179.434 1.97253 73.9826 -8.67493 1.97194 -69.4746 -29.1615 -1.59028e-015 1.59028e-015 -40.3878 41.9589 34.7429 -29.3805 12.4896 168.452 -28.4584 7.95139e-016 -1.39149e-015 10.2346 -1.84467 3.69083 90 -7.45443e-016 -0 -10.7154 -25.2265 177.274 -46.8412 -3.18056e-015 -3.18056e-015 21.083 -7.15593 14.2972 90 -4.77083e-015 9.54166e-015 
481.067 86.4056 -39.4699 -129.387 -78.6102 143.202 -0.378255 4.37573 -1.40523 -0.651288 8.75984 -2.79348 -0.651288 8.75984 -2.79349 -8.30589e-012 -9.0191e-006 -5.27751e-005 12.1722 60.6359 -20.2037 -177.57 -6.30921 -68.8832 43.0798 -30.3717 51.6285 -1.09485e-005 -9.54166e-015 -0 -152.638 -0.0620355 167.517 -179.231 2.63634 73.7338 -7.43094 4.26358 -69.3433 -29.8938 3.18055e-015 -1.59028e-015 -40.5186 41.8568 35.0175 -29.8641 8.98814 167.807 -35.6454 -7.95139e-016 7.95139e-016 14.9748 -1.54591 3.11187 90 -1.87603e-015 -0 -17.3855 -29.1249 169.839 -58.4378 -6.36111e-015 -0 13.0184 -11.3895 22.5432 90 3.18055e-015 3.18055e-015 
483.331 85.9145 -41.7163 -148.353 -81.931 126.628 -0.211411 4.14026 -2.12795 -0.269136 8.28597 -4.25713 -0.269136 8.28597 -4.25714 -8.30748e-012 -9.0191e-006 -5.27751e-005 9.55037 59.509 -17.8645 -177.744 -5.93309 -69.1347 42.0798 -32.6404 50.5454 -1.09714e-005 -9.54166e-015 6.36111e-015 -150.67 -1.03502 166.869 -178.918 3.4123 72.3925 -5.14748 5.95182 -68.9335 -32.383 1.59028e-015 -0 -42.2586 42.6693 37.8846 -30.5257 7.40571 166.388 -40.8545 -1.19271e-015 1.78906e-015 17.754 0.771123 -1.41846 90 -8.26199e-016 -0 -26.7929 -28.3409 160.982 -68.3791 3.18056e-015 3.18056e-015 2.07561 -14.7457 28.6169 90 0 -6.36111e-015 
485.721 86.0108 -43.3442 -178.178 -82.5638 96.3854 -0.240591 4.15998 -2.27747 -0.315993 8.3267 -4.5553 -0.315993 8.3267 -4.55531 -8.30589e-012 -9.0191e-006 -5.27751e-005 7.49113 57.5956 -16.3006 -177.896 -5.61895 -69.4283 43.8031 -38.1425 53.0365 -1.09917e-005 1.59028e-015 3.18055e-015 -150.416 -5.20733 167.966 -178.794 3.7263 72.0561 -2.55127 6.22315 -69.3008 -35.8174 -4.77083e-015 -0 -46.8014 43.6637 43.6331 -31.0298 6.14655 167.929 -42.8123 -1.98785e-016 3.33586e-015 19.7646 2.87037 -5.57206 90 -3.15571e-015 -3.97569e-016 -33.5771 -25.4159 158.806 -74.2999 3.18056e-015 -6.36111e-015 -7.80292 -15.3373 28.7996 90 -3.18055e-015 9.54166e-015 
488.259 86.8845 -44.9382 148.708 -80.7301 62.0255 -0.243683 4.00962 -2.17944 -0.335138 8.02607 -4.35765 -0.335138 8.02607 -4.35766 -8.30748e-012 -9.0191e-006 -5.27751e-005 6.92509 55.7899 -15.9149 -177.901 -5.65431 -69.5931 51.0077 -45.4668 61.1352 -1.10097e-005 -3.97569e-016 -0 -152.39 -10.5759 169.062 -178.858 3.59618 72.3635 -1.12255 5.26371 -69.2213 -38.6883 -3.18055e-015 -0 -51.4614 44.5028 49.193 -30.6063 2.12935 169.264 -41.8196 3.97569e-016 3.97569e-016 19.6353 4.11463 -8.11238 90 1.41634e-015 -3.97569e-016 -38.056 -23.7037 158.54 -77.8476 4.77083e-015 -6.36111e-015 -6.7955 -13.2039 24.35 90 3.18055e-015 6.36111e-015 
490.892 88.0719 -46.661 124.324 -76.5562 36.3734 -0.126858 3.67052 -2.02892 -0.123494 7.34369 -4.06205 -0.123494 7.34369 -4.06206 -8.30589e-012 -9.0191e-006 -5.27751e-005 6.3939 53.698 -14.5718 -177.926 -5.75114 -70.1306 68.5613 -52.2185 78.4582 -1.10253e-005 0 -0 -157.173 -19.8531 169.17 -178.934 3.37212 72.4398 -0.904952 3.62621 -68.2512 -40.5313 -3.18055e-015 -0 -53.4878 45.4052 51.7435 -29.2605 -3.29163 170.401 -39.9427 -7.95139e-016 -0 18.3617 5.42577 -10.7816 90 -1.56271e-015 1.98785e-016 -39.3648 -22.3418 159.17 -76.9791 -3.18056e-015 -7.95139e-015 -7.58228 -10.0988 18.2979 90 3.18055e-015 6.36111e-015 
